<svg width="20" height="20" viewBox="0 0 20 20" fill="none" xmlns="http://www.w3.org/2000/svg">
<path fill-rule="evenodd" clip-rule="evenodd" d="M10 0.000488281C4.47679 0.000488281 0 4.47727 0 10.0005C0 15.5237 4.47679 20.0005 10 20.0005C15.5232 20.0005 20 15.5237 20 10.0005C20 4.47727 15.5232 0.000488281 10 0.000488281ZM10 1.50049C14.6948 1.50049 18.5 5.3057 18.5 10.0005C18.5 14.6953 14.6948 18.5005 10 18.5005C5.30521 18.5005 1.5 14.6953 1.5 10.0005C1.5 5.3057 5.30521 1.50049 10 1.50049ZM10.4048 5.74512C10.3551 5.37904 10.0413 5.09689 9.6616 5.09689C9.24739 5.09689 8.9116 5.43267 8.9116 5.84689V10.6939L8.91996 10.8056C8.95309 11.0257 9.08294 11.222 9.27736 11.338L13.0474 13.587L13.1383 13.6332C13.4781 13.7781 13.8812 13.6532 14.0757 13.3271L14.122 13.2362C14.2669 12.8964 14.1419 12.4933 13.8158 12.2988L10.4112 10.267L10.4116 5.84689L10.4048 5.74512Z" fill="#A6A6A6"/>
</svg>
