<svg width="20" height="22" viewBox="0 0 20 22" fill="none" xmlns="http://www.w3.org/2000/svg">
<path fill-rule="evenodd" clip-rule="evenodd" d="M6.66939 15.7557H12.5044C12.9441 15.7557 13.3088 15.3873 13.3088 14.9432C13.3088 14.499 12.9441 14.1415 12.5044 14.1415H6.66939C6.22962 14.1415 5.86494 14.499 5.86494 14.9432C5.86494 15.3873 6.22962 15.7557 6.66939 15.7557ZM10.2948 8.72484H6.66939C6.22962 8.72484 5.86494 9.09317 5.86494 9.53734C5.86494 9.9815 6.22962 10.339 6.66939 10.339H10.2948C10.7346 10.339 11.0993 9.9815 11.0993 9.53734C11.0993 9.09317 10.7346 8.72484 10.2948 8.72484ZM17.9494 7.77758C18.2015 7.77467 18.4761 7.7715 18.7255 7.7715C18.9936 7.7715 19.2082 7.98817 19.2082 8.259V16.969C19.2082 19.6557 17.0522 21.8332 14.3922 21.8332H5.85421C3.06543 21.8332 0.791504 19.5473 0.791504 16.7307V5.05234C0.791504 2.36567 2.95817 0.166504 5.62896 0.166504H11.3567C11.6356 0.166504 11.8501 0.394004 11.8501 0.664837V4.15317C11.8501 6.13567 13.4697 7.76067 15.4326 7.7715C15.8911 7.7715 16.2953 7.77493 16.649 7.77793C16.9242 7.78026 17.1688 7.78234 17.3847 7.78234C17.5374 7.78234 17.7353 7.78005 17.9494 7.77758ZM18.2452 6.19634C17.3635 6.19959 16.3241 6.19634 15.5765 6.18876C14.3902 6.18876 13.4131 5.20184 13.4131 4.00367V1.148C13.4131 0.681087 13.9741 0.449254 14.2948 0.786171C14.875 1.39555 15.6724 2.23311 16.4661 3.06694C17.2585 3.89927 18.0473 4.72787 18.6131 5.32209C18.9263 5.65034 18.6967 6.19525 18.2452 6.19634Z" fill="#00A795"/>
</svg>
