<svg width="18" height="20" viewBox="0 0 18 20" fill="none" xmlns="http://www.w3.org/2000/svg">
<path fill-rule="evenodd" clip-rule="evenodd" d="M5.13751 20C4.72551 20 4.33451 19.968 3.96651 19.905L3.74851 19.864C1.37751 19.371 -0.000488281 17.555 -0.000488281 14.791V5.209C-0.000488281 4.875 0.0195117 4.555 0.0595117 4.249C0.408512 1.564 2.25351 0 5.13751 0H12.8625C16.0585 0 17.9695 1.92 17.9995 5.132V5.209V14.791C17.9995 18.048 16.0835 20 12.8625 20H5.13751ZM5.13751 1.457C2.68151 1.457 1.43651 2.72 1.43651 5.209V14.791C1.43651 17.28 2.68151 18.543 5.13751 18.543H12.8535C15.3085 18.543 16.5455 17.28 16.5455 14.791V5.209C16.5455 2.72 15.3085 1.457 12.8535 1.457H5.13751ZM13.3055 14.234C13.3055 13.834 12.9865 13.51 12.5925 13.51H5.38151C4.98751 13.51 4.66751 13.834 4.66751 14.234C4.66751 14.634 4.98751 14.958 5.38151 14.958H12.5925C12.9865 14.958 13.3055 14.634 13.3055 14.234ZM12.5925 9.271C12.8675 9.241 13.1365 9.373 13.2835 9.61C13.4305 9.849 13.4305 10.151 13.2835 10.39C13.1365 10.627 12.8675 10.759 12.5925 10.729H5.38151C5.01551 10.687 4.73851 10.374 4.73851 10C4.73851 9.626 5.01551 9.312 5.38151 9.271H12.5925ZM8.77651 5.771C8.77651 5.397 8.49951 5.083 8.13351 5.042H5.39051C5.02351 5.083 4.74651 5.397 4.74651 5.771C4.74651 6.144 5.02351 6.458 5.39051 6.499H8.13351C8.49951 6.458 8.77651 6.144 8.77651 5.771Z" fill="#A6A6A6"/>
</svg>
