<svg width="66" height="74" viewBox="0 0 66 74" fill="none" xmlns="http://www.w3.org/2000/svg">
<path fill-rule="evenodd" clip-rule="evenodd" d="M17.6367 0.333496H48.367C59.6933 0.333496 66 6.86016 66 18.0435V55.9202C66 67.2868 59.6933 73.6668 48.367 73.6668H17.6367C6.49 73.6668 0 67.2868 0 55.9202V18.0435C0 6.86016 6.49 0.333496 17.6367 0.333496ZM18.6261 17.4199V17.3832H29.5858C31.1661 17.3832 32.4495 18.6666 32.4495 20.2396C32.4495 21.8566 31.1661 23.1399 29.5858 23.1399H18.6261C17.0458 23.1399 15.7661 21.8566 15.7661 20.2799C15.7661 18.7032 17.0458 17.4199 18.6261 17.4199ZM18.6261 39.7134H47.3728C48.9495 39.7134 50.2328 38.43 50.2328 36.8534C50.2328 35.2767 48.9495 33.9897 47.3728 33.9897H18.6261C17.0458 33.9897 15.7661 35.2767 15.7661 36.8534C15.7661 38.43 17.0458 39.7134 18.6261 39.7134ZM18.6266 56.4697H47.3732C48.8362 56.3231 49.9399 55.0727 49.9399 53.6097C49.9399 52.1064 48.8362 50.8597 47.3732 50.7131H18.6266C17.5266 50.6031 16.4632 51.1164 15.8766 52.0697C15.2899 52.9864 15.2899 54.1964 15.8766 55.1497C16.4632 56.0664 17.5266 56.6164 18.6266 56.4697Z" fill="#F9F9F9"/>
</svg>
