<svg width="18" height="18" viewBox="0 0 18 18" fill="none" xmlns="http://www.w3.org/2000/svg">
<path fill-rule="evenodd" clip-rule="evenodd" d="M9.00033 17.3332C4.40033 17.3332 0.666992 13.5915 0.666992 8.99984C0.666992 4.39984 4.40033 0.666504 9.00033 0.666504C13.592 0.666504 17.3337 4.39984 17.3337 8.99984C17.3337 13.5915 13.592 17.3332 9.00033 17.3332ZM12.3337 7.34984C12.0837 7.10817 11.692 7.10817 11.4503 7.35817L9.00033 9.8165L6.55033 7.35817C6.30866 7.10817 5.90866 7.10817 5.66699 7.34984C5.41699 7.59984 5.41699 7.9915 5.66699 8.23317L8.55866 11.1415C8.67533 11.2582 8.83366 11.3248 9.00033 11.3248C9.16699 11.3248 9.32533 11.2582 9.44199 11.1415L12.3337 8.23317C12.4587 8.1165 12.517 7.95817 12.517 7.79984C12.517 7.63317 12.4587 7.47484 12.3337 7.34984Z" fill="#F1F1F1"/>
</svg>
