<svg width="18" height="18" viewBox="0 0 18 18" fill="none" xmlns="http://www.w3.org/2000/svg">
<path d="M11.5582 8.37484L10.8082 9.1415C10.2082 9.7415 9.83317 10.2498 9.83317 11.4998H8.1665V11.0832C8.1665 10.1582 8.5415 9.32484 9.1415 8.72484L10.1748 7.67484C10.4832 7.37484 10.6665 6.95817 10.6665 6.49984C10.6665 5.57484 9.9165 4.83317 8.99984 4.83317C8.55781 4.83317 8.13389 5.00877 7.82133 5.32133C7.50877 5.63389 7.33317 6.05781 7.33317 6.49984H5.6665C5.6665 5.61578 6.01769 4.76794 6.64281 4.14281C7.26794 3.51769 8.11578 3.1665 8.99984 3.1665C9.88389 3.1665 10.7317 3.51769 11.3569 4.14281C11.982 4.76794 12.3332 5.61578 12.3332 6.49984C12.3332 7.23317 12.0332 7.8915 11.5582 8.37484ZM9.83317 14.8332H8.1665V13.1665H9.83317V14.8332ZM8.99984 0.666504C7.90549 0.666504 6.82186 0.882052 5.81081 1.30084C4.79976 1.71963 3.8811 2.33346 3.10728 3.10728C1.54448 4.67008 0.666504 6.7897 0.666504 8.99984C0.666504 11.21 1.54448 13.3296 3.10728 14.8924C3.8811 15.6662 4.79976 16.28 5.81081 16.6988C6.82186 17.1176 7.90549 17.3332 8.99984 17.3332C11.21 17.3332 13.3296 16.4552 14.8924 14.8924C16.4552 13.3296 17.3332 11.21 17.3332 8.99984C17.3332 4.3915 13.5832 0.666504 8.99984 0.666504Z" fill="#F1F1F1"/>
</svg>
